<svg width="61" height="655" viewBox="0 0 61 655" fill="none" xmlns="http://www.w3.org/2000/svg">
<g opacity="0.5">
<mask id="path-1-outside-1_149_591" maskUnits="userSpaceOnUse" x="-2" y="-2" width="122" height="659" fill="black">
<rect fill="white" x="-2" y="-2" width="122" height="659"/>
<path d="M117.172 622.525C117.172 633.072 113.998 641.007 107.65 646.329C101.254 651.651 92.3184 654.313 80.8438 654.313L34.2617 654.313C23.1777 654.313 14.8037 651.603 9.13965 646.183C3.42676 640.714 0.570313 632.828 0.570313 622.525C0.570313 612.174 3.42676 604.288 9.13965 598.868C14.8037 593.448 23.1777 590.738 34.2617 590.738L80.8438 590.738C92.3184 590.738 101.254 593.399 107.65 598.722C113.998 604.044 117.172 611.979 117.172 622.525ZM94.1738 622.306C94.1738 619.864 93.0752 618.277 90.8779 617.545C88.6318 616.813 85.9463 616.446 82.8213 616.446L33.0898 616.446C30.7949 616.446 28.6465 616.764 26.6445 617.398C24.5938 618.033 23.5684 619.62 23.5684 622.159C23.5684 624.649 24.5205 626.358 26.4248 627.286C28.2803 628.165 30.5752 628.604 33.3096 628.604L82.9678 628.604C86.3369 628.604 89.0469 628.214 91.0977 627.433C93.1484 626.651 94.1738 624.942 94.1738 622.306ZM117.172 549.028C117.172 559.771 114.169 567.681 108.163 572.759C102.108 577.837 93.2217 580.376 81.5029 580.376L1.74219 580.376L1.74219 555.327L81.21 555.327C83.3584 555.327 85.4336 555.205 87.4355 554.961C89.3887 554.717 91 554.155 92.2695 553.276C93.5391 552.397 94.1738 550.981 94.1738 549.028C94.1738 547.026 93.5635 545.586 92.3428 544.707C91.0732 543.828 89.4375 543.291 87.4355 543.096C85.4336 542.852 83.3584 542.729 81.21 542.729L1.74219 542.729L1.74219 517.681L81.5029 517.681C93.2217 517.681 102.108 520.22 108.163 525.298C114.169 530.376 117.172 538.286 117.172 549.028ZM116 506.293L1.74219 506.293L1.74219 467.475C1.74219 460.883 3.13379 455.854 5.91699 452.387C8.7002 448.871 12.5332 446.479 17.416 445.209C22.25 443.939 27.792 443.305 34.042 443.305C41.9033 443.305 48.1289 444.379 52.7188 446.527C57.3086 448.676 60.458 452.143 62.167 456.928C62.8506 452.582 64.8037 449.506 68.0264 447.699C71.249 445.844 75.4971 444.916 80.7705 444.916L116 444.916L116 470.478L79.0859 470.478C75.3262 470.478 73.0068 471.259 72.1279 472.821C71.2002 474.335 70.7363 476.801 70.7363 480.219L116 480.219L116 506.293ZM48.3975 480.072L48.3975 473.847C48.3975 470.282 44.5889 468.5 36.9717 468.5C32.3818 468.5 29.3545 468.891 27.8897 469.672C26.376 470.453 25.6191 471.918 25.6191 474.066L25.6191 480.072L48.3975 480.072ZM116 396.652L1.74219 396.652L1.74219 345.09L26.6445 345.09L26.6445 370.432L45.541 370.432L45.541 346.115L69.7842 346.115L69.7842 370.432L90.8779 370.432L90.8779 343.405L116 343.405L116 396.652ZM116 322.203L1.74219 337.364L1.74219 312.828L89.4863 303.38L1.74219 294.957L1.74219 270.421L116 285.582L116 322.203ZM116 261.377L1.74219 261.377L1.74219 209.814L26.6445 209.814L26.6445 235.156L45.541 235.156L45.541 210.84L69.7842 210.84L69.7842 235.156L90.8779 235.156L90.8779 208.13L116 208.13L116 261.377ZM116 198.061L1.74219 198.061L1.74219 171.547L63.7051 158.217L1.74219 158.217L1.74219 134.779L116 134.779L116 159.975L54.1104 174.33L116 174.33L116 198.061ZM116 110.794L26.4981 110.794L26.4981 126.102L1.74219 126.102L1.74219 69.7051L26.4981 69.7051L26.4981 85.0127L116 85.0127L116 110.794ZM117.172 30.4121C117.172 42.1797 114.242 50.6758 108.383 55.9004C102.523 61.0762 93.1973 63.6641 80.4043 63.6641L76.2295 63.6641L76.2295 38.1758L83.9199 38.1758C86.8984 38.1758 89.2422 37.7363 90.9512 36.8574C92.6113 35.9297 93.4414 34.3428 93.4414 32.0967C93.4414 29.7529 92.8311 28.1416 91.6104 27.2627C90.3408 26.335 88.5098 25.8711 86.1172 25.8711C82.9434 25.8711 80.2578 26.9453 78.0606 29.0938C75.8633 31.1934 72.8848 34.6846 69.125 39.5674L60.4824 50.7002C56.8203 55.4365 52.7676 58.7813 48.3242 60.7344C43.8809 62.6875 38.4854 63.6641 32.1377 63.6641C22.2256 63.6641 14.4863 61.125 8.91993 56.0469C3.35352 50.9199 0.57032 43.5225 0.57032 33.8545C0.57032 22.0381 3.64649 13.6641 9.79884 8.73242C15.9512 3.75195 24.9844 1.26172 36.8984 1.26172L36.8984 27.4092L30.5996 27.4092C26.4004 27.4092 24.3008 29.3623 24.3008 33.2686C24.3008 35.2217 24.8867 36.6621 26.0586 37.5898C27.1816 38.5176 28.6465 38.9814 30.4531 38.9814C32.2598 38.9814 33.9688 38.5664 35.5801 37.7363C37.1426 36.8574 39.1934 34.8555 41.7324 31.7305L53.8174 16.8623C58.2119 11.4424 62.8262 7.34082 67.6602 4.55762C72.4941 1.77442 78.7686 0.382814 86.4834 0.382814C91.8545 0.382814 96.8838 1.35938 101.571 3.3125C106.259 5.2168 110.043 8.36621 112.924 12.7607C115.756 17.1553 117.172 23.0391 117.172 30.4121Z"/>
</mask>
<path d="M107.65 646.329L108.93 647.867L108.935 647.862L107.65 646.329ZM9.13965 646.183L7.75665 647.627L7.75692 647.628L9.13965 646.183ZM9.13965 598.868L10.5162 600.319L10.5224 600.313L9.13965 598.868ZM107.65 598.722L108.935 597.189L108.93 597.184L107.65 598.722ZM90.8779 617.545L91.5104 615.648L91.498 615.643L90.8779 617.545ZM26.6445 617.398L27.2359 619.309L27.249 619.305L26.6445 617.398ZM26.4248 627.286L25.5489 629.084L25.5587 629.089L25.5686 629.094L26.4248 627.286ZM115.172 622.525C115.172 632.655 112.141 639.954 106.365 644.797L108.935 647.862C115.855 642.06 119.172 633.489 119.172 622.525L115.172 622.525ZM106.371 644.792C100.449 649.719 92.0271 652.313 80.8438 652.313L80.8438 656.313C92.6096 656.313 102.058 653.584 108.93 647.867L106.371 644.792ZM80.8438 652.313L34.2617 652.313L34.2617 656.313L80.8438 656.313L80.8438 652.313ZM34.2617 652.313C23.4788 652.313 15.6839 649.677 10.5224 644.738L7.75692 647.628C13.9235 653.528 22.8767 656.313 34.2617 656.313L34.2617 652.313ZM10.5227 644.738C5.31358 639.751 2.57031 632.456 2.57031 622.525L-1.42969 622.525C-1.42969 633.2 1.53993 641.676 7.75665 647.627L10.5227 644.738ZM2.57031 622.525C2.57031 612.542 5.31574 605.253 10.5162 600.319L7.76313 597.417C1.53777 603.323 -1.42969 611.806 -1.42969 622.525L2.57031 622.525ZM10.5224 600.313C15.6839 595.374 23.4788 592.738 34.2617 592.738L34.2617 588.738C22.8767 588.738 13.9235 591.522 7.75692 597.423L10.5224 600.313ZM34.2617 592.738L80.8438 592.738L80.8438 588.738L34.2617 588.738L34.2617 592.738ZM80.8438 592.738C92.0271 592.738 100.449 595.332 106.371 600.259L108.93 597.184C102.058 591.467 92.6097 588.738 80.8438 588.738L80.8438 592.738ZM106.365 600.254C112.141 605.097 115.172 612.395 115.172 622.525L119.172 622.525C119.172 611.562 115.855 602.991 108.935 597.189L106.365 600.254ZM96.1738 622.306C96.1738 620.786 95.8298 619.353 94.9942 618.146C94.1523 616.93 92.9351 616.122 91.5104 615.648L90.2455 619.442C91.018 619.7 91.4487 620.052 91.7055 620.423C91.9686 620.803 92.1738 621.384 92.1738 622.306L96.1738 622.306ZM91.498 615.643C88.9989 614.829 86.0931 614.446 82.8213 614.446L82.8213 618.446C85.7995 618.446 88.2647 618.796 90.2579 619.446L91.498 615.643ZM82.8213 614.446L33.0898 614.446L33.0898 618.446L82.8213 618.446L82.8213 614.446ZM33.0898 614.446C30.6087 614.446 28.2548 614.79 26.04 615.492L27.249 619.305C29.0382 618.738 30.9811 618.446 33.0898 618.446L33.0898 614.446ZM26.0532 615.488C24.6441 615.924 23.4595 616.738 22.6576 617.979C21.8754 619.19 21.5684 620.634 21.5684 622.159L25.5684 622.159C25.5684 621.146 25.774 620.527 26.0172 620.15C26.2407 619.804 26.5941 619.508 27.2359 619.309L26.0532 615.488ZM21.5684 622.159C21.5684 623.654 21.8541 625.059 22.5353 626.282C23.2273 627.524 24.2608 628.457 25.5489 629.084L27.3007 625.488C26.6845 625.188 26.2898 624.802 26.0296 624.335C25.7587 623.849 25.5684 623.155 25.5684 622.159L21.5684 622.159ZM25.5686 629.094C27.7651 630.134 30.3727 630.604 33.3096 630.604L33.3096 626.604C30.7777 626.604 28.7954 626.196 27.281 625.479L25.5686 629.094ZM33.3096 630.604L82.9678 630.604L82.9678 626.604L33.3096 626.604L33.3096 630.604ZM82.9678 630.604C86.4639 630.604 89.4435 630.203 91.8096 629.302L90.3857 625.564C88.6503 626.225 86.21 626.604 82.9678 626.604L82.9678 630.604ZM91.8096 629.302C93.2091 628.768 94.3528 627.872 95.1198 626.594C95.8699 625.344 96.1738 623.873 96.1738 622.306L92.1738 622.306C92.1738 623.375 91.965 624.077 91.6898 624.536C91.4314 624.967 91.037 625.316 90.3857 625.564L91.8096 629.302ZM108.163 572.759L109.448 574.291L109.454 574.286L108.163 572.759ZM1.74219 580.376L-0.257812 580.376L-0.257812 582.376L1.74219 582.376L1.74219 580.376ZM1.74219 555.327L1.74219 553.327L-0.257811 553.327L-0.257811 555.327L1.74219 555.327ZM87.4355 554.961L87.6777 556.946L87.6836 556.945L87.4355 554.961ZM92.3428 544.707L93.5114 543.084L93.4964 543.073L93.4812 543.063L92.3428 544.707ZM87.4355 543.096L87.1934 545.081L87.2174 545.084L87.2413 545.086L87.4355 543.096ZM1.74219 542.729L-0.257811 542.729L-0.257811 544.729L1.74219 544.729L1.74219 542.729ZM1.74219 517.681L1.74219 515.681L-0.257811 515.681L-0.257811 517.681L1.74219 517.681ZM108.163 525.298L109.454 523.771L109.448 523.765L108.163 525.298ZM115.172 549.028C115.172 559.409 112.28 566.659 106.872 571.232L109.454 574.286C116.058 568.703 119.172 560.132 119.172 549.028L115.172 549.028ZM106.878 571.226C101.322 575.886 92.9714 578.376 81.5029 578.376L81.5029 582.376C93.472 582.376 102.895 579.788 109.448 574.291L106.878 571.226ZM81.5029 578.376L1.74219 578.376L1.74219 582.376L81.5029 582.376L81.5029 578.376ZM3.74219 580.376L3.74219 555.327L-0.257811 555.327L-0.257812 580.376L3.74219 580.376ZM1.74219 557.327L81.21 557.327L81.21 553.327L1.74219 553.327L1.74219 557.327ZM81.21 557.327C83.4341 557.327 85.5904 557.201 87.6777 556.946L87.1934 552.976C85.2768 553.209 83.2827 553.327 81.21 553.327L81.21 557.327ZM87.6836 556.945C89.871 556.672 91.8105 556.027 93.4079 554.921L91.1311 551.632C90.1895 552.284 88.9063 552.762 87.1875 552.976L87.6836 556.945ZM93.4079 554.921C95.3596 553.57 96.1738 551.443 96.1738 549.028L92.1738 549.028C92.1738 550.52 91.7185 551.225 91.1311 551.632L93.4079 554.921ZM96.1738 549.028C96.1738 546.616 95.418 544.457 93.5114 543.084L91.1742 546.33C91.709 546.715 92.1738 547.437 92.1738 549.028L96.1738 549.028ZM93.4812 543.063C91.8593 541.94 89.8711 541.324 87.6297 541.105L87.2413 545.086C89.0039 545.258 90.2872 545.716 91.2044 546.351L93.4812 543.063ZM87.6777 541.11C85.5904 540.856 83.4341 540.729 81.21 540.729L81.21 544.729C83.2827 544.729 85.2768 544.847 87.1934 545.081L87.6777 541.11ZM81.21 540.729L1.74219 540.729L1.74219 544.729L81.21 544.729L81.21 540.729ZM3.74219 542.729L3.74219 517.681L-0.257811 517.681L-0.257811 542.729L3.74219 542.729ZM1.74219 519.681L81.5029 519.681L81.5029 515.681L1.74219 515.681L1.74219 519.681ZM81.5029 519.681C92.9714 519.681 101.322 522.17 106.878 526.83L109.448 523.765C102.895 518.269 93.472 515.681 81.5029 515.681L81.5029 519.681ZM106.872 526.825C112.28 531.398 115.172 538.648 115.172 549.028L119.172 549.028C119.172 537.924 116.058 529.354 109.454 523.771L106.872 526.825ZM116 506.293L116 508.293L118 508.293L118 506.293L116 506.293ZM1.74219 506.293L-0.257811 506.293L-0.257811 508.293L1.74219 508.293L1.74219 506.293ZM5.91699 452.387L7.47663 453.639L7.48509 453.628L5.91699 452.387ZM17.416 445.209L17.9193 447.145L17.924 447.143L17.416 445.209ZM62.167 456.928L60.2835 457.6L64.1427 457.239L62.167 456.928ZM68.0264 447.699L69.0044 449.444L69.0144 449.438L69.0243 449.432L68.0264 447.699ZM116 444.916L118 444.916L118 442.916L116 442.916L116 444.916ZM116 470.478L116 472.478L118 472.478L118 470.478L116 470.478ZM72.1279 472.821L73.8331 473.866L73.8527 473.834L73.8711 473.802L72.1279 472.821ZM70.7363 480.219L68.7363 480.219L68.7363 482.219L70.7363 482.219L70.7363 480.219ZM116 480.219L118 480.219L118 478.219L116 478.219L116 480.219ZM48.3975 480.072L48.3975 482.072L50.3975 482.072L50.3975 480.072L48.3975 480.072ZM27.8897 469.672L28.8069 471.449L28.8189 471.443L28.8308 471.437L27.8897 469.672ZM25.6191 480.072L23.6191 480.072L23.6191 482.072L25.6191 482.072L25.6191 480.072ZM116 504.293L1.74219 504.293L1.74219 508.293L116 508.293L116 504.293ZM3.74219 506.293L3.74219 467.475L-0.25781 467.475L-0.257811 506.293L3.74219 506.293ZM3.74219 467.475C3.74219 461.127 5.08745 456.615 7.47659 453.639L4.3574 451.135C1.18013 455.092 -0.25781 460.639 -0.25781 467.475L3.74219 467.475ZM7.48509 453.628C9.96485 450.496 13.4022 448.319 17.9193 447.145L16.9128 443.273C11.6642 444.638 7.43554 447.246 4.3489 451.145L7.48509 453.628ZM17.924 447.143C22.5569 445.927 27.9227 445.305 34.042 445.305L34.042 441.305C27.6613 441.305 21.9431 441.952 16.908 443.275L17.924 447.143ZM34.042 445.305C41.7556 445.305 47.6524 446.364 51.8709 448.339L53.5666 444.716C48.6054 442.394 42.051 441.305 34.042 441.305L34.042 445.305ZM51.8709 448.339C55.976 450.26 58.7535 453.316 60.2835 457.6L64.0505 456.255C62.1626 450.969 58.6412 447.091 53.5666 444.716L51.8709 448.339ZM64.1427 457.239C64.7513 453.369 66.4209 450.892 69.0044 449.444L67.0484 445.955C63.1866 448.12 60.9498 451.795 60.1913 456.617L64.1427 457.239ZM69.0243 449.432C71.8425 447.81 75.7089 446.916 80.7705 446.916L80.7705 442.916C75.2853 442.916 70.6556 443.878 67.0284 445.966L69.0243 449.432ZM80.7705 446.916L116 446.916L116 442.916L80.7705 442.916L80.7705 446.916ZM114 444.916L114 470.478L118 470.478L118 444.916L114 444.916ZM116 468.478L79.0859 468.478L79.0859 472.478L116 472.478L116 468.478ZM79.0859 468.478C77.0925 468.478 75.3329 468.681 73.8882 469.168C72.4325 469.658 71.1432 470.492 70.3848 471.841L73.8711 473.802C73.9915 473.588 74.3014 473.25 75.1651 472.959C76.0397 472.664 77.3197 472.478 79.0859 472.478L79.0859 468.478ZM70.4227 471.776C69.1939 473.781 68.7363 476.717 68.7363 480.219L72.7363 480.219C72.7363 476.885 73.2065 474.889 73.8331 473.866L70.4227 471.776ZM70.7363 482.219L116 482.219L116 478.219L70.7363 478.219L70.7363 482.219ZM114 480.219L114 506.293L118 506.293L118 480.219L114 480.219ZM50.3975 480.072L50.3975 473.847L46.3975 473.847L46.3975 480.072L50.3975 480.072ZM50.3975 473.847C50.3975 472.577 50.0507 471.384 49.3123 470.347C48.5877 469.33 47.5672 468.577 46.3887 468.025C44.0834 466.946 40.873 466.5 36.9717 466.5L36.9717 470.5C40.6875 470.5 43.19 470.945 44.6933 471.648C45.4192 471.988 45.8269 472.349 46.0544 472.668C46.2682 472.968 46.3975 473.334 46.3975 473.847L50.3975 473.847ZM36.9717 466.5C34.6292 466.5 32.6322 466.599 31.0028 466.809C29.4158 467.014 28.0042 467.344 26.9485 467.907L28.8308 471.437C29.24 471.218 30.0744 470.962 31.5147 470.777C32.9127 470.596 34.7243 470.5 36.9717 470.5L36.9717 466.5ZM26.9724 467.895C24.6101 469.114 23.6191 471.402 23.6191 474.066L27.6191 474.066C27.6191 472.434 28.1418 471.792 28.8069 471.449L26.9724 467.895ZM23.6191 474.066L23.6191 480.072L27.6191 480.072L27.6191 474.066L23.6191 474.066ZM25.6191 482.072L48.3975 482.072L48.3975 478.072L25.6191 478.072L25.6191 482.072ZM116 396.652L116 398.652L118 398.652L118 396.652L116 396.652ZM1.74219 396.652L-0.257809 396.652L-0.257809 398.652L1.74219 398.652L1.74219 396.652ZM1.74219 345.09L1.74219 343.09L-0.257809 343.09L-0.257809 345.09L1.74219 345.09ZM26.6445 345.09L28.6445 345.09L28.6445 343.09L26.6445 343.09L26.6445 345.09ZM26.6445 370.432L24.6445 370.432L24.6445 372.432L26.6445 372.432L26.6445 370.432ZM45.541 370.432L45.541 372.432L47.541 372.432L47.541 370.432L45.541 370.432ZM45.541 346.115L45.541 344.115L43.541 344.115L43.541 346.115L45.541 346.115ZM69.7842 346.115L71.7842 346.115L71.7842 344.115L69.7842 344.115L69.7842 346.115ZM69.7842 370.432L67.7842 370.432L67.7842 372.432L69.7842 372.432L69.7842 370.432ZM90.8779 370.432L90.8779 372.432L92.8779 372.432L92.8779 370.432L90.8779 370.432ZM90.8779 343.405L90.8779 341.405L88.8779 341.405L88.8779 343.405L90.8779 343.405ZM116 343.405L118 343.405L118 341.405L116 341.405L116 343.405ZM116 394.652L1.74219 394.652L1.74219 398.652L116 398.652L116 394.652ZM3.74219 396.652L3.74219 345.09L-0.257809 345.09L-0.257809 396.652L3.74219 396.652ZM1.74219 347.09L26.6445 347.09L26.6445 343.09L1.74219 343.09L1.74219 347.09ZM24.6445 345.09L24.6445 370.432L28.6445 370.432L28.6445 345.09L24.6445 345.09ZM26.6445 372.432L45.541 372.432L45.541 368.432L26.6445 368.432L26.6445 372.432ZM47.541 370.432L47.541 346.115L43.541 346.115L43.541 370.432L47.541 370.432ZM45.541 348.115L69.7842 348.115L69.7842 344.115L45.541 344.115L45.541 348.115ZM67.7842 346.115L67.7842 370.432L71.7842 370.432L71.7842 346.115L67.7842 346.115ZM69.7842 372.432L90.8779 372.432L90.8779 368.432L69.7842 368.432L69.7842 372.432ZM92.8779 370.432L92.8779 343.405L88.8779 343.405L88.8779 370.432L92.8779 370.432ZM90.8779 345.405L116 345.405L116 341.405L90.8779 341.405L90.8779 345.405ZM114 343.405L114 396.652L118 396.652L118 343.405L114 343.405ZM116 322.203L116.263 324.186L118 323.955L118 322.203L116 322.203ZM1.74219 337.364L-0.257809 337.364L-0.257809 339.647L2.00527 339.347L1.74219 337.364ZM1.74219 312.828L1.52807 310.84L-0.257808 311.032L-0.257808 312.828L1.74219 312.828ZM89.4863 303.38L89.7005 305.368L89.6774 301.389L89.4863 303.38ZM1.74219 294.957L-0.257808 294.957L-0.257808 296.774L1.55108 296.948L1.74219 294.957ZM1.74219 270.421L2.00527 268.438L-0.257808 268.138L-0.257808 270.421L1.74219 270.421ZM116 285.582L118 285.582L118 283.83L116.263 283.599L116 285.582ZM115.737 320.22L1.47911 335.382L2.00527 339.347L116.263 324.186L115.737 320.22ZM3.74219 337.364L3.74219 312.828L-0.257808 312.828L-0.257809 337.364L3.74219 337.364ZM1.95631 314.817L89.7005 305.368L89.2722 301.391L1.52807 310.84L1.95631 314.817ZM89.6774 301.389L1.9333 292.966L1.55108 296.948L89.2952 305.371L89.6774 301.389ZM3.74219 294.957L3.74219 270.421L-0.257808 270.421L-0.257808 294.957L3.74219 294.957ZM1.47912 272.404L115.737 287.565L116.263 283.599L2.00527 268.438L1.47912 272.404ZM114 285.582L114 322.203L118 322.203L118 285.582L114 285.582ZM116 261.377L116 263.377L118 263.377L118 261.377L116 261.377ZM1.74219 261.377L-0.257808 261.377L-0.257808 263.377L1.74219 263.377L1.74219 261.377ZM1.74219 209.814L1.74219 207.814L-0.257807 207.814L-0.257807 209.814L1.74219 209.814ZM26.6445 209.814L28.6445 209.814L28.6445 207.814L26.6445 207.814L26.6445 209.814ZM26.6445 235.156L24.6445 235.156L24.6445 237.156L26.6445 237.156L26.6445 235.156ZM45.541 235.156L45.541 237.156L47.541 237.156L47.541 235.156L45.541 235.156ZM45.541 210.84L45.541 208.84L43.541 208.84L43.541 210.84L45.541 210.84ZM69.7842 210.84L71.7842 210.84L71.7842 208.84L69.7842 208.84L69.7842 210.84ZM69.7842 235.156L67.7842 235.156L67.7842 237.156L69.7842 237.156L69.7842 235.156ZM90.8779 235.156L90.8779 237.156L92.8779 237.156L92.8779 235.156L90.8779 235.156ZM90.8779 208.13L90.8779 206.13L88.8779 206.13L88.8779 208.13L90.8779 208.13ZM116 208.13L118 208.13L118 206.13L116 206.13L116 208.13ZM116 259.377L1.74219 259.377L1.74219 263.377L116 263.377L116 259.377ZM3.74219 261.377L3.74219 209.814L-0.257807 209.814L-0.257808 261.377L3.74219 261.377ZM1.74219 211.814L26.6445 211.814L26.6445 207.814L1.74219 207.814L1.74219 211.814ZM24.6445 209.814L24.6445 235.156L28.6445 235.156L28.6445 209.814L24.6445 209.814ZM26.6445 237.156L45.541 237.156L45.541 233.156L26.6445 233.156L26.6445 237.156ZM47.541 235.156L47.541 210.84L43.541 210.84L43.541 235.156L47.541 235.156ZM45.541 212.84L69.7842 212.84L69.7842 208.84L45.541 208.84L45.541 212.84ZM67.7842 210.84L67.7842 235.156L71.7842 235.156L71.7842 210.84L67.7842 210.84ZM69.7842 237.156L90.8779 237.156L90.8779 233.156L69.7842 233.156L69.7842 237.156ZM92.8779 235.156L92.8779 208.13L88.8779 208.13L88.8779 235.156L92.8779 235.156ZM90.8779 210.13L116 210.13L116 206.13L90.8779 206.13L90.8779 210.13ZM114 208.13L114 261.377L118 261.377L118 208.13L114 208.13ZM116 198.061L116 200.061L118 200.061L118 198.061L116 198.061ZM1.74219 198.061L-0.257807 198.061L-0.257807 200.061L1.74219 200.061L1.74219 198.061ZM1.74219 171.547L1.32156 169.592L-0.257807 169.931L-0.257807 171.547L1.74219 171.547ZM63.7051 158.217L64.1257 160.172L63.7051 156.217L63.7051 158.217ZM1.74219 158.217L-0.257807 158.217L-0.257807 160.217L1.74219 160.217L1.74219 158.217ZM1.74219 134.779L1.74219 132.779L-0.257806 132.779L-0.257806 134.779L1.74219 134.779ZM116 134.779L118 134.779L118 132.779L116 132.779L116 134.779ZM116 159.975L116.452 161.923L118 161.564L118 159.975L116 159.975ZM54.1104 174.33L53.6585 172.382L54.1104 176.33L54.1104 174.33ZM116 174.33L118 174.33L118 172.33L116 172.33L116 174.33ZM116 196.061L1.74219 196.061L1.74219 200.061L116 200.061L116 196.061ZM3.74219 198.061L3.74219 171.547L-0.257807 171.547L-0.257807 198.061L3.74219 198.061ZM2.16283 173.502L64.1257 160.172L63.2844 156.262L1.32156 169.592L2.16283 173.502ZM63.7051 156.217L1.74219 156.217L1.74219 160.217L63.7051 160.217L63.7051 156.217ZM3.74219 158.217L3.74219 134.779L-0.257806 134.779L-0.257807 158.217L3.74219 158.217ZM1.74219 136.779L116 136.779L116 132.779L1.74219 132.779L1.74219 136.779ZM114 134.779L114 159.975L118 159.975L118 134.779L114 134.779ZM115.548 158.026L53.6585 172.382L54.5623 176.278L116.452 161.923L115.548 158.026ZM54.1104 176.33L116 176.33L116 172.33L54.1104 172.33L54.1104 176.33ZM114 174.33L114 198.061L118 198.061L118 174.33L114 174.33ZM116 110.794L116 112.794L118 112.794L118 110.794L116 110.794ZM26.4981 110.794L26.4981 108.794L24.4981 108.794L24.4981 110.794L26.4981 110.794ZM26.4981 126.102L26.4981 128.102L28.4981 128.102L28.4981 126.102L26.4981 126.102ZM1.74219 126.102L-0.257806 126.102L-0.257806 128.102L1.74219 128.102L1.74219 126.102ZM1.74219 69.7051L1.74219 67.7051L-0.257805 67.7051L-0.257805 69.7051L1.74219 69.7051ZM26.4981 69.7051L28.4981 69.7051L28.4981 67.7051L26.4981 67.7051L26.4981 69.7051ZM26.4981 85.0127L24.4981 85.0127L24.4981 87.0127L26.4981 87.0127L26.4981 85.0127ZM116 85.0127L118 85.0127L118 83.0127L116 83.0127L116 85.0127ZM116 108.794L26.4981 108.794L26.4981 112.794L116 112.794L116 108.794ZM24.4981 110.794L24.4981 126.102L28.4981 126.102L28.4981 110.794L24.4981 110.794ZM26.4981 124.102L1.74219 124.102L1.74219 128.102L26.4981 128.102L26.4981 124.102ZM3.74219 126.102L3.74219 69.7051L-0.257805 69.7051L-0.257806 126.102L3.74219 126.102ZM1.74219 71.7051L26.4981 71.7051L26.4981 67.7051L1.74219 67.7051L1.74219 71.7051ZM24.4981 69.7051L24.4981 85.0127L28.4981 85.0127L28.4981 69.7051L24.4981 69.7051ZM26.4981 87.0127L116 87.0127L116 83.0127L26.4981 83.0127L26.4981 87.0127ZM114 85.0127L114 110.794L118 110.794L118 85.0127L114 85.0127ZM108.383 55.9004L109.707 57.3994L109.714 57.3931L108.383 55.9004ZM76.2295 63.6641L74.2295 63.6641L74.2295 65.6641L76.2295 65.6641L76.2295 63.6641ZM76.2295 38.1758L76.2295 36.1758L74.2295 36.1758L74.2295 38.1758L76.2295 38.1758ZM90.9512 36.8574L91.8659 38.636L91.8966 38.6202L91.9268 38.6033L90.9512 36.8574ZM91.6104 27.2627L90.4303 28.8775L90.4417 28.8857L91.6104 27.2627ZM78.0606 29.0938L79.4423 30.5397L79.4506 30.5318L79.4588 30.5237L78.0606 29.0938ZM69.125 39.5674L70.7048 40.7938L70.7097 40.7876L69.125 39.5674ZM60.4824 50.7002L58.9026 49.4738L58.9002 49.4768L60.4824 50.7002ZM8.91993 56.0469L7.56496 57.518L7.57201 57.5244L8.91993 56.0469ZM9.79884 8.73242L11.0498 10.293L11.0572 10.2869L9.79884 8.73242ZM36.8984 1.26172L38.8984 1.26172L38.8984 -0.73828L36.8984 -0.73828L36.8984 1.26172ZM36.8984 27.4092L36.8984 29.4092L38.8984 29.4092L38.8984 27.4092L36.8984 27.4092ZM26.0586 37.5898L27.3324 36.0479L27.3163 36.0347L27.3 36.0217L26.0586 37.5898ZM35.5801 37.7363L36.496 39.5143L36.5286 39.4975L36.5606 39.4795L35.5801 37.7363ZM41.7324 31.7305L40.1804 30.469L40.1802 30.4693L41.7324 31.7305ZM53.8174 16.8623L55.3694 18.1238L55.3709 18.1219L53.8174 16.8623ZM101.571 3.3125L100.802 5.15863L100.81 5.16211L100.819 5.16541L101.571 3.3125ZM112.924 12.7607L114.605 11.6774L114.601 11.6708L114.596 11.6642L112.924 12.7607ZM115.172 30.4121C115.172 41.8959 112.311 49.7186 107.052 54.4077L109.714 57.3931C116.174 51.633 119.172 42.4635 119.172 30.4121L115.172 30.4121ZM107.059 54.4014C101.736 59.1033 93.0002 61.6641 80.4043 61.6641L80.4043 65.6641C93.3944 65.6641 103.311 63.049 109.707 57.3994L107.059 54.4014ZM80.4043 61.6641L76.2295 61.6641L76.2295 65.6641L80.4043 65.6641L80.4043 61.6641ZM78.2295 63.6641L78.2295 38.1758L74.2295 38.1758L74.2295 63.6641L78.2295 63.6641ZM76.2295 40.1758L83.9199 40.1758L83.9199 36.1758L76.2295 36.1758L76.2295 40.1758ZM83.9199 40.1758C87.0582 40.1758 89.7604 39.7188 91.8659 38.636L90.0365 35.0789C88.7239 35.7538 86.7387 36.1758 83.9199 36.1758L83.9199 40.1758ZM91.9268 38.6033C94.3453 37.2518 95.4414 34.9107 95.4414 32.0967L91.4414 32.0967C91.4414 33.7748 90.8774 34.6076 89.9755 35.1115L91.9268 38.6033ZM95.4414 32.0967C95.4414 29.4786 94.7624 27.0677 92.779 25.6397L90.4417 28.8857C90.8997 29.2155 91.4414 30.0272 91.4414 32.0967L95.4414 32.0967ZM92.7904 25.6479C91.0415 24.3699 88.7255 23.8711 86.1172 23.8711L86.1172 27.8711C88.294 27.8711 89.6402 28.3001 90.4303 28.8775L92.7904 25.6479ZM86.1172 23.8711C82.4398 23.8711 79.2467 25.1368 76.6623 27.6638L79.4588 30.5237C81.2689 28.7538 83.4469 27.8711 86.1172 27.8711L86.1172 23.8711ZM76.6788 27.6478C74.3668 29.857 71.3126 33.4481 67.5404 38.3472L70.7097 40.7876C74.4569 35.921 77.3597 32.5297 79.4423 30.5397L76.6788 27.6478ZM67.5452 38.3409L58.9026 49.4738L62.0623 51.9266L70.7048 40.7938L67.5452 38.3409ZM58.9002 49.4768C55.3953 54.0098 51.5935 57.1127 47.5194 58.9034L49.129 62.5653C53.9417 60.4498 58.2453 56.8632 62.0646 51.9236L58.9002 49.4768ZM47.5194 58.9034C43.3949 60.7164 38.2897 61.6641 32.1377 61.6641L32.1377 65.6641C38.681 65.6641 44.3668 64.6586 49.129 62.5653L47.5194 58.9034ZM32.1377 61.6641C22.5632 61.6641 15.362 59.2166 10.2679 54.5693L7.57201 57.5244C13.6107 63.0334 21.888 65.6641 32.1377 65.6641L32.1377 61.6641ZM10.2749 54.5758C5.22693 49.9263 2.57032 43.1283 2.57032 33.8545L-1.42968 33.8545C-1.42968 43.9166 1.48012 51.9135 7.56498 57.5179L10.2749 54.5758ZM2.57032 33.8545C2.57032 22.3348 5.5691 14.6862 11.0497 10.293L8.54794 7.17188C1.72389 12.642 -1.42968 21.7413 -1.42968 33.8545L2.57032 33.8545ZM11.0572 10.2869C16.7127 5.70868 25.2208 3.26172 36.8984 3.26172L36.8984 -0.73828C24.748 -0.73828 15.1896 1.79523 8.54044 7.17792L11.0572 10.2869ZM34.8984 1.26172L34.8984 27.4092L38.8984 27.4092L38.8984 1.26172L34.8984 1.26172ZM36.8984 25.4092L30.5996 25.4092L30.5996 29.4092L36.8984 29.4092L36.8984 25.4092ZM30.5996 25.4092C28.2262 25.4092 26.0736 25.9582 24.5133 27.4097C22.9257 28.8865 22.3008 30.9686 22.3008 33.2686L26.3008 33.2686C26.3008 31.6623 26.7257 30.8147 27.2377 30.3384C27.777 29.8367 28.7738 29.4092 30.5996 29.4092L30.5996 25.4092ZM22.3008 33.2686C22.3008 35.63 23.027 37.7407 24.8172 39.158L27.3 36.0217C26.7465 35.5836 26.3008 34.8134 26.3008 33.2686L22.3008 33.2686ZM24.7848 39.1318C26.346 40.4214 28.2966 40.9814 30.4531 40.9814L30.4531 36.9814C28.9964 36.9814 28.0173 36.6137 27.3324 36.0479L24.7848 39.1318ZM30.4531 40.9814C32.5795 40.9814 34.6024 40.4897 36.496 39.5143L34.6642 35.9584C33.3351 36.6431 31.94 36.9814 30.4531 36.9814L30.4531 40.9814ZM36.5606 39.4795C38.4816 38.3989 40.7356 36.1289 43.2847 32.9916L40.1802 30.4693C37.6511 33.582 35.8036 35.3159 34.5996 35.9932L36.5606 39.4795ZM43.2844 32.9919L55.3694 18.1238L52.2654 15.6008L40.1804 30.469L43.2844 32.9919ZM55.3709 18.1219C59.6482 12.8466 64.0827 8.92517 68.6581 6.29083L66.6622 2.8244C61.5696 5.75647 56.7757 10.0381 52.2639 15.6027L55.3709 18.1219ZM68.6581 6.29083C73.0941 3.73682 78.9908 2.38281 86.4834 2.38281L86.4834 -1.61719C78.5463 -1.61719 71.8942 -0.187987 66.6622 2.8244L68.6581 6.29083ZM86.4834 2.38281C91.6059 2.38281 96.3722 3.31287 100.802 5.15863L102.341 1.46637C97.3954 -0.594114 92.1031 -1.61719 86.4834 -1.61719L86.4834 2.38281ZM100.819 5.16541C105.115 6.91071 108.584 9.78852 111.251 13.8572L114.596 11.6642C111.502 6.94391 107.403 3.52289 102.324 1.4596L100.819 5.16541ZM111.243 13.8441C113.798 17.8087 115.172 23.2724 115.172 30.4121L119.172 30.4121C119.172 22.8057 117.714 16.5018 114.605 11.6774L111.243 13.8441Z" fill="white" mask="url(#path-1-outside-1_149_591)"/>
</g>
</svg>
